# xmcd
#
# Track frame offsets: 
#        150
#        16031
#        34251
#        50208
#        69054
#        82285
#        102053
#        116224
#        134311
#        148003
#
# Disc length: 2222 seconds
#
# Revision: 0
# Processed by: cddbd v1.5.2PL0 Copyright (c) Steve Scherf et al.
# Submitted via: ExactAudioCopy v1.0b3
#
DISCID=8a08ac0a
DTITLE=鄭敬基 - 偶像占士甸
DYEAR=1987
DGENRE=Blues
TTITLE0=偶像占士甸
TTITLE1=局外人
TTITLE2=果濟的夏日
TTITLE3=Come To Me
TTITLE4=思念
TTITLE5=情不自禁
TTITLE6=魔力舞會
TTITLE7=三角錯
TTITLE8=最後結局
TTITLE9=純真
EXTD=
EXTT0=
EXTT1=
EXTT2=
EXTT3=
EXTT4=
EXTT5=
EXTT6=
EXTT7=
EXTT8=
EXTT9=
PLAYORDER=
